Coordinates
version=1
nRows=13
nColumns=63
inDegrees=yes

Units are S.I. units (second, meters, Newtons, ...)
If the header above contains a line with 'inDegrees', this indicates whether rotational values are in degrees (yes) or radians (no).

endheader
time	pelvis_tilt	pelvis_list	pelvis_rotation	pelvis_tx	pelvis_ty	pelvis_tz	hip_flexion_r	hip_adduction_r	hip_rotation_r	knee_angle_r	knee_angle_r_beta	ankle_angle_r	subtalar_angle_r	mtp_angle_r	hip_flexion_l	hip_adduction_l	hip_rotation_l	knee_angle_l	knee_angle_l_beta	ankle_angle_l	subtalar_angle_l	mtp_angle_l	L5_S1_Flex_Ext	L5_S1_Lat_Bending	L5_S1_axial_rotation	L4_L5_Flex_Ext	L4_L5_Lat_Bending	L4_L5_axial_rotation	L3_L4_Flex_Ext	L3_L4_Lat_Bending	L3_L4_axial_rotation	L2_L3_Flex_Ext	L2_L3_Lat_Bending	L2_L3_axial_rotation	L1_L2_Flex_Ext	L1_L2_Lat_Bending	L1_L2_axial_rotation	L1_T12_Flex_Ext	L1_T12_Lat_Bending	L1_T12_axial_rotation	Abs_r3	Abs_r2	Abs_r1	Abs_t1	Abs_t2	neck_flexion	neck_bending	neck_rotation	arm_flex_r	arm_add_r	arm_rot_r	elbow_flex_r	pro_sup_r	wrist_flex_r	wrist_dev_r	arm_flex_l	arm_add_l	arm_rot_l	elbow_flex_l	pro_sup_l	wrist_flex_l	wrist_dev_l
3.322034	-2.774102	-2.495713	85.724743	0.187890	0.959454	0.530216	8.720333	-2.293125	-13.702920	8.441137	0.147326	25.357221	7.689502	0.000000	7.568709	1.056780	1.889266	4.184489	0.073033	21.783990	-1.696096	0.000000	-0.142510	-0.353899	1.770198	-0.264656	-0.470685	1.880836	-0.234130	-0.860469	1.880836	-0.162875	-0.860469	1.548924	-0.132335	-0.721670	1.438286	-0.081430	-0.548189	1.327649	-1.017937	-4.003372	9.845312	0.000000	0.000000	10.831310	2.575370	-4.881822	4.958615	-10.265527	15.008649	48.908558	84.601400	-3.149197	5.135396	18.503466	-14.545895	52.796671	46.099236	90.814542	-26.412453	-10.453673
3.338983	-2.824858	-2.607469	85.635888	0.188224	0.959378	0.530937	8.875332	-2.293490	-13.537534	8.338336	0.145531	25.450673	7.900915	0.000000	7.769247	1.071684	1.753547	4.205784	0.073405	22.017594	-1.553754	0.000000	-0.132395	-0.364831	1.802753	-0.245871	-0.485225	1.915425	-0.217512	-0.887049	1.915425	-0.151314	-0.887049	1.577409	-0.122942	-0.743963	1.464737	-0.075651	-0.565123	1.352065	-0.945684	-4.127038	10.026370	0.000000	0.000000	11.327551	3.073321	-5.041603	5.499839	-9.978478	16.200991	49.816074	82.339331	-3.118888	4.409399	19.017019	-14.106637	53.467501	47.138855	90.863008	-23.851732	-10.369893
3.355932	-2.854674	-2.699084	85.488260	0.188636	0.959375	0.531397	8.986568	-2.271311	-13.380759	8.243510	0.143876	25.509661	8.185482	0.000000	7.913547	1.060241	1.570278	4.168803	0.072759	22.276478	-1.318649	0.000000	-0.121759	-0.371093	1.831364	-0.226118	-0.493554	1.945824	-0.200038	-0.902276	1.945824	-0.139158	-0.902276	1.602444	-0.113065	-0.756733	1.487983	-0.069573	-0.574823	1.373523	-0.869711	-4.197880	10.185498	0.000000	0.000000	11.771876	3.429626	-5.055199	5.963038	-9.694065	17.593776	50.713409	79.500105	-3.046170	3.624928	19.280385	-13.733392	53.933944	48.402273	90.393310	-20.600121	-9.723166
3.372881	-2.846904	-2.772774	85.307570	0.189087	0.959439	0.531618	9.048693	-2.209725	-13.254173	8.145074	0.142158	25.503539	8.518825	0.000000	8.016422	1.003569	1.338068	4.097151	0.071509	22.571373	-0.970619	0.000000	-0.110613	-0.370661	1.853980	-0.205420	-0.492979	1.969854	-0.181727	-0.901224	1.969854	-0.126420	-0.901224	1.622233	-0.102716	-0.755851	1.506359	-0.063204	-0.574153	1.390485	-0.790100	-4.192988	10.311283	0.000000	0.000000	12.166940	3.635925	-4.921327	6.347939	-9.454179	19.190373	51.577969	76.245282	-2.913732	2.914109	19.379113	-13.422585	54.414289	49.815106	89.102896	-17.103507	-8.777399
3.389831	-2.826414	-2.830026	85.093126	0.189578	0.959556	0.531580	9.075885	-2.138719	-13.196948	8.063984	0.140743	25.451224	8.915232	0.000000	8.070368	0.932502	1.052327	3.975653	0.069388	22.875865	-0.568533	0.000000	-0.098849	-0.367114	1.871166	-0.183573	-0.488261	1.988114	-0.162399	-0.892600	1.988114	-0.112975	-0.892600	1.637270	-0.091791	-0.748618	1.520322	-0.056482	-0.568659	1.403375	-0.706070	-4.152863	10.406865	0.000000	0.000000	12.553506	3.711624	-4.668922	6.643015	-9.245967	20.994303	52.345701	72.771030	-2.727187	2.218200	19.247596	-13.177865	54.595464	51.331504	87.357739	-13.234828	-7.301264
3.406780	-2.774546	-2.869781	84.881641	0.190048	0.959723	0.531319	9.065581	-2.040309	-13.172641	7.996163	0.139559	25.367083	9.306530	0.000000	8.095853	0.826762	0.706207	3.858496	0.067343	23.214928	-0.081372	0.000000	-0.086433	-0.358325	1.876446	-0.160514	-0.476572	1.993724	-0.142000	-0.871231	1.993724	-0.098784	-0.871231	1.641890	-0.080261	-0.730696	1.524613	-0.049388	-0.555045	1.407335	-0.617379	-4.053441	10.436231	0.000000	0.000000	12.902637	3.637118	-4.311331	6.869355	-9.097901	22.936160	53.037789	69.332955	-2.414615	1.895985	18.999730	-12.968317	54.839886	52.746021	84.860285	-9.625429	-5.914215
3.423729	-2.690731	-2.890639	84.683885	0.190479	0.959926	0.530888	9.019694	-1.913155	-13.162860	7.930785	0.138418	25.257992	9.652722	0.000000	8.103136	0.687672	0.306197	3.776722	0.065916	23.580123	0.453233	0.000000	-0.074869	-0.345269	1.885176	-0.139039	-0.459208	2.003000	-0.123002	-0.839488	2.003000	-0.085567	-0.839488	1.649529	-0.069523	-0.704073	1.531706	-0.042780	-0.534822	1.413882	-0.534779	-3.905754	10.484784	0.000000	0.000000	13.238102	3.455012	-3.984684	6.979664	-9.016678	24.854443	53.674941	65.888288	-1.917997	2.017761	18.781434	-12.773160	55.428041	53.928553	81.756692	-6.442599	-4.721900
3.440678	-2.583516	-2.884595	84.510141	0.190921	0.960167	0.530292	8.932911	-1.764114	-13.159709	7.868264	0.137327	25.160147	9.963266	0.000000	8.086358	0.521557	-0.155512	3.751408	0.065474	23.962118	1.020173	0.000000	-0.065146	-0.330260	1.894510	-0.120982	-0.439246	2.012917	-0.107028	-0.802994	2.012917	-0.074455	-0.802994	1.657696	-0.060494	-0.673466	1.539289	-0.037224	-0.511573	1.420882	-0.465330	-3.735968	10.536694	0.000000	0.000000	13.552101	3.216623	-3.667666	7.033529	-9.010759	26.809530	54.205379	62.477965	-1.215727	2.613636	18.587755	-12.620978	56.284381	54.853467	78.185409	-3.563209	-3.694061
3.457627	-2.455429	-2.864110	84.363749	0.191323	0.960418	0.529545	8.820101	-1.597901	-13.165043	7.801506	0.136162	25.081063	10.242762	0.000000	8.056521	0.334850	-0.614259	3.788080	0.066114	24.332063	1.548466	0.000000	-0.056057	-0.313349	1.914442	-0.104104	-0.416755	2.034095	-0.092097	-0.761878	2.034095	-0.064068	-0.761878	1.675137	-0.052055	-0.638982	1.555484	-0.032031	-0.485378	1.435832	-0.400412	-3.544672	10.647552	0.000000	0.000000	13.856631	2.915054	-3.447234	6.974211	-9.076463	28.631855	54.697206	58.955761	-0.423750	3.681647	18.510201	-12.471962	57.638914	55.409387	74.408051	-1.316453	-3.004783
3.474576	-2.311550	-2.828801	84.249032	0.191704	0.960672	0.528661	8.678568	-1.413600	-13.108188	7.721669	0.134769	25.024718	10.387844	0.000000	8.015453	0.132477	-1.095885	3.899767	0.068064	24.692052	2.056810	0.000000	-0.048105	-0.295977	1.943653	-0.089335	-0.393649	2.065131	-0.079031	-0.719638	2.065131	-0.054979	-0.719638	1.700696	-0.044670	-0.603556	1.579218	-0.027487	-0.458468	1.457739	-0.343606	-3.348149	10.810013	0.000000	0.000000	14.143400	2.598686	-3.342744	6.814635	-9.193074	30.239817	55.122942	55.662361	0.459416	5.154215	18.547584	-12.346423	59.437207	55.685029	70.485624	0.323397	-2.575269
3.491525	-2.157883	-2.783784	84.168102	0.192069	0.960913	0.527663	8.514109	-1.216870	-12.993723	7.628914	0.133150	24.994396	10.398032	0.000000	7.967736	-0.078955	-1.559560	4.081668	0.071239	25.009272	2.520265	0.000000	-0.041292	-0.279256	1.980874	-0.076683	-0.371410	2.104679	-0.067839	-0.678982	2.104679	-0.047193	-0.678982	1.733265	-0.038344	-0.569458	1.609460	-0.023594	-0.432567	1.485656	-0.294944	-3.158997	11.017029	0.000000	0.000000	14.396579	2.290046	-3.364739	6.570625	-9.370770	31.685969	55.491239	52.533424	1.181259	6.758089	18.686366	-12.254554	61.561150	55.757972	66.549522	1.348317	-2.283825
3.508475	-2.008094	-2.735662	84.113975	0.192402	0.961132	0.526555	8.336412	-1.025351	-12.842432	7.530004	0.131423	24.978880	10.295971	0.000000	7.909615	-0.280482	-1.955615	4.300220	0.075053	25.275579	2.899387	0.000000	-0.034976	-0.264388	2.024434	-0.064953	-0.351636	2.150961	-0.057462	-0.642832	2.150961	-0.039974	-0.642832	1.771380	-0.032478	-0.539139	1.644853	-0.019985	-0.409537	1.518325	-0.249828	-2.990807	11.259294	0.000000	0.000000	14.606026	2.002584	-3.491444	6.246174	-9.583701	32.881657	55.765910	50.269382	1.766604	8.240282	18.914110	-12.188584	63.904573	55.706295	62.707667	1.722664	-2.098712
3.525424	-1.867180	-2.686347	84.109886	0.192669	0.961329	0.525369	8.142456	-0.847215	-12.695036	7.418529	0.129478	24.955100	10.088847	0.000000	7.845317	-0.462332	-2.260408	4.532833	0.079113	25.504292	3.221390	0.000000	-0.029354	-0.251842	2.058621	-0.054514	-0.334950	2.187285	-0.048226	-0.612329	2.187285	-0.033549	-0.612329	1.801294	-0.027258	-0.513557	1.672630	-0.016773	-0.390104	1.543966	-0.209674	-2.848890	11.449435	0.000000	0.000000	14.766585	1.753671	-3.664459	5.897736	-9.821797	33.917233	55.932115	49.045765	2.106595	9.427014	19.182758	-12.158973	66.239332	55.628099	58.987833	1.510893	-1.888272
